<svg width="985" height="300" viewBox="0 0 985 300" fill="none" xmlns="http://www.w3.org/2000/svg">
<path d="M38.9091 125.364C31.9394 125.364 25.9545 123.833 20.9545 120.773C15.9848 117.712 12.1515 113.485 9.45455 108.091C6.78788 102.667 5.45455 96.4242 5.45455 89.3636C5.45455 82.2727 6.81818 76.0152 9.54545 70.5909C12.2727 65.1364 16.1212 60.8939 21.0909 57.8636C26.0909 54.803 32 53.2727 38.8182 53.2727C44.4849 53.2727 49.5 54.3182 53.8636 56.4091C58.2576 58.4697 61.7576 61.3939 64.3636 65.1818C66.9697 68.9394 68.4545 73.3333 68.8182 78.3636H53.0909C52.4545 75 50.9394 72.197 48.5455 69.9545C46.1818 67.6818 43.0152 66.5455 39.0455 66.5455C35.6818 66.5455 32.7273 67.4545 30.1818 69.2727C27.6364 71.0606 25.6515 73.6364 24.2273 77C22.8333 80.3636 22.1364 84.3939 22.1364 89.0909C22.1364 93.8485 22.8333 97.9394 24.2273 101.364C25.6212 104.758 27.5758 107.379 30.0909 109.227C32.6364 111.045 35.6212 111.955 39.0455 111.955C41.4697 111.955 43.6364 111.5 45.5455 110.591C47.4849 109.652 49.1061 108.303 50.4091 106.545C51.7121 104.788 52.6061 102.652 53.0909 100.136H68.8182C68.4242 105.076 66.9697 109.455 64.4545 113.273C61.9394 117.061 58.5152 120.03 54.1818 122.182C49.8485 124.303 44.7576 125.364 38.9091 125.364ZM82.3295 124V54.1818H98.2841V65.8182H99.0114C100.284 61.7879 102.466 58.6818 105.557 56.5C108.678 54.2879 112.239 53.1818 116.239 53.1818C117.148 53.1818 118.163 53.2273 119.284 53.3182C120.436 53.3788 121.39 53.4848 122.148 53.6364V68.7727C121.451 68.5303 120.345 68.3182 118.83 68.1364C117.345 67.9242 115.905 67.8182 114.511 67.8182C111.511 67.8182 108.814 68.4697 106.42 69.7727C104.057 71.0455 102.193 72.8182 100.83 75.0909C99.4659 77.3636 98.7841 79.9848 98.7841 82.9545V124H82.3295ZM161.114 125.364C154.114 125.364 148.068 123.909 142.977 121C137.917 118.061 134.023 113.909 131.295 108.545C128.568 103.152 127.205 96.803 127.205 89.5C127.205 82.3182 128.568 76.0152 131.295 70.5909C134.053 65.1364 137.902 60.8939 142.841 57.8636C147.78 54.803 153.583 53.2727 160.25 53.2727C164.553 53.2727 168.614 53.9697 172.432 55.3636C176.28 56.7273 179.674 58.8485 182.614 61.7273C185.583 64.6061 187.917 68.2727 189.614 72.7273C191.311 77.1515 192.159 82.4242 192.159 88.5455V93.5909H134.932V82.5H176.386C176.356 79.3485 175.674 76.5455 174.341 74.0909C173.008 71.6061 171.144 69.6515 168.75 68.2273C166.386 66.803 163.629 66.0909 160.477 66.0909C157.114 66.0909 154.159 66.9091 151.614 68.5455C149.068 70.1515 147.083 72.2727 145.659 74.9091C144.265 77.5151 143.553 80.3788 143.523 83.5V93.1818C143.523 97.2424 144.265 100.727 145.75 103.636C147.235 106.515 149.311 108.727 151.977 110.273C154.644 111.788 157.765 112.545 161.341 112.545C163.735 112.545 165.902 112.212 167.841 111.545C169.78 110.848 171.462 109.833 172.886 108.5C174.311 107.167 175.386 105.515 176.114 103.545L191.477 105.273C190.508 109.333 188.659 112.879 185.932 115.909C183.235 118.909 179.78 121.242 175.568 122.909C171.356 124.545 166.538 125.364 161.114 125.364ZM226.17 125.409C221.746 125.409 217.761 124.621 214.216 123.045C210.701 121.439 207.913 119.076 205.852 115.955C203.822 112.833 202.807 108.985 202.807 104.409C202.807 100.47 203.534 97.2121 204.989 94.6364C206.443 92.0606 208.428 90 210.943 88.4545C213.458 86.9091 216.292 85.7424 219.443 84.9545C222.625 84.1364 225.913 83.5455 229.307 83.1818C233.398 82.7576 236.716 82.3788 239.261 82.0455C241.807 81.6818 243.655 81.1364 244.807 80.4091C245.989 79.6515 246.58 78.4848 246.58 76.9091V76.6364C246.58 73.2121 245.564 70.5606 243.534 68.6818C241.504 66.803 238.58 65.8636 234.761 65.8636C230.731 65.8636 227.534 66.7424 225.17 68.5C222.837 70.2576 221.261 72.3333 220.443 74.7273L205.08 72.5455C206.292 68.303 208.292 64.7576 211.08 61.9091C213.867 59.0303 217.277 56.8788 221.307 55.4545C225.337 54 229.792 53.2727 234.67 53.2727C238.034 53.2727 241.383 53.6667 244.716 54.4545C248.049 55.2424 251.095 56.5455 253.852 58.3636C256.61 60.1515 258.822 62.5909 260.489 65.6818C262.186 68.7727 263.034 72.6364 263.034 77.2727V124H247.216V114.409H246.67C245.67 116.348 244.261 118.167 242.443 119.864C240.655 121.53 238.398 122.879 235.67 123.909C232.973 124.909 229.807 125.409 226.17 125.409ZM230.443 113.318C233.746 113.318 236.61 112.667 239.034 111.364C241.458 110.03 243.322 108.273 244.625 106.091C245.958 103.909 246.625 101.53 246.625 98.9545V90.7273C246.11 91.1515 245.231 91.5455 243.989 91.9091C242.777 92.2727 241.413 92.5909 239.898 92.8636C238.383 93.1364 236.883 93.3788 235.398 93.5909C233.913 93.803 232.625 93.9848 231.534 94.1364C229.08 94.4697 226.883 95.0152 224.943 95.7727C223.004 96.5303 221.473 97.5909 220.352 98.9545C219.231 100.288 218.67 102.015 218.67 104.136C218.67 107.167 219.777 109.455 221.989 111C224.201 112.545 227.019 113.318 230.443 113.318Z" fill="#A6A6A6"/>
<path d="M314.443 54.1818V66.9091H274.307V54.1818H314.443ZM284.216 37.4545H300.67V103C300.67 105.212 301.004 106.909 301.67 108.091C302.367 109.242 303.277 110.03 304.398 110.455C305.519 110.879 306.761 111.091 308.125 111.091C309.155 111.091 310.095 111.015 310.943 110.864C311.822 110.712 312.489 110.576 312.943 110.455L315.716 123.318C314.837 123.621 313.58 123.955 311.943 124.318C310.337 124.682 308.367 124.894 306.034 124.955C301.913 125.076 298.201 124.455 294.898 123.091C291.595 121.697 288.973 119.545 287.034 116.636C285.125 113.727 284.186 110.091 284.216 105.727V37.4545ZM358.364 125.364C351.364 125.364 345.318 123.909 340.227 121C335.167 118.061 331.273 113.909 328.545 108.545C325.818 103.152 324.455 96.803 324.455 89.5C324.455 82.3182 325.818 76.0152 328.545 70.5909C331.303 65.1364 335.152 60.8939 340.091 57.8636C345.03 54.803 350.833 53.2727 357.5 53.2727C361.803 53.2727 365.864 53.9697 369.682 55.3636C373.53 56.7273 376.924 58.8485 379.864 61.7273C382.833 64.6061 385.167 68.2727 386.864 72.7273C388.561 77.1515 389.409 82.4242 389.409 88.5455V93.5909H332.182V82.5H373.636C373.606 79.3485 372.924 76.5455 371.591 74.0909C370.258 71.6061 368.394 69.6515 366 68.2273C363.636 66.803 360.879 66.0909 357.727 66.0909C354.364 66.0909 351.409 66.9091 348.864 68.5455C346.318 70.1515 344.333 72.2727 342.909 74.9091C341.515 77.5151 340.803 80.3788 340.773 83.5V93.1818C340.773 97.2424 341.515 100.727 343 103.636C344.485 106.515 346.561 108.727 349.227 110.273C351.894 111.788 355.015 112.545 358.591 112.545C360.985 112.545 363.152 112.212 365.091 111.545C367.03 110.848 368.712 109.833 370.136 108.5C371.561 107.167 372.636 105.515 373.364 103.545L388.727 105.273C387.758 109.333 385.909 112.879 383.182 115.909C380.485 118.909 377.03 121.242 372.818 122.909C368.606 124.545 363.788 125.364 358.364 125.364Z" fill="#7F7F7F"/>
<path d="M416.011 124H398.011L430.784 30.9091H451.602L484.42 124H466.42L441.557 50H440.83L416.011 124ZM416.602 87.5H465.693V101.045H416.602V87.5Z" fill="#09D562"/>
<path d="M551.136 72.6364L536.136 74.2727C535.712 72.7576 534.97 71.3333 533.909 70C532.879 68.6667 531.485 67.5909 529.727 66.7727C527.97 65.9545 525.818 65.5455 523.273 65.5455C519.848 65.5455 516.97 66.2879 514.636 67.7727C512.333 69.2576 511.197 71.1818 511.227 73.5455C511.197 75.5758 511.939 77.2273 513.455 78.5C515 79.7727 517.545 80.8182 521.091 81.6364L533 84.1818C539.606 85.6061 544.515 87.8636 547.727 90.9545C550.97 94.0455 552.606 98.0909 552.636 103.091C552.606 107.485 551.318 111.364 548.773 114.727C546.258 118.061 542.758 120.667 538.273 122.545C533.788 124.424 528.636 125.364 522.818 125.364C514.273 125.364 507.394 123.576 502.182 120C496.97 116.394 493.864 111.379 492.864 104.955L508.909 103.409C509.636 106.561 511.182 108.939 513.545 110.545C515.909 112.152 518.985 112.955 522.773 112.955C526.682 112.955 529.818 112.152 532.182 110.545C534.576 108.939 535.773 106.955 535.773 104.591C535.773 102.591 535 100.939 533.455 99.6364C531.939 98.3333 529.576 97.3333 526.364 96.6364L514.455 94.1364C507.758 92.7424 502.803 90.3939 499.591 87.0909C496.379 83.7576 494.788 79.5455 494.818 74.4545C494.788 70.1515 495.955 66.4242 498.318 63.2727C500.712 60.0909 504.03 57.6364 508.273 55.9091C512.545 54.1515 517.47 53.2727 523.045 53.2727C531.227 53.2727 537.667 55.0152 542.364 58.5C547.091 61.9848 550.015 66.697 551.136 72.6364ZM596.659 125.364C589.841 125.364 583.932 123.864 578.932 120.864C573.932 117.864 570.053 113.667 567.295 108.273C564.568 102.879 563.205 96.5758 563.205 89.3636C563.205 82.1515 564.568 75.8333 567.295 70.4091C570.053 64.9848 573.932 60.7727 578.932 57.7727C583.932 54.7727 589.841 53.2727 596.659 53.2727C603.477 53.2727 609.386 54.7727 614.386 57.7727C619.386 60.7727 623.25 64.9848 625.977 70.4091C628.735 75.8333 630.114 82.1515 630.114 89.3636C630.114 96.5758 628.735 102.879 625.977 108.273C623.25 113.667 619.386 117.864 614.386 120.864C609.386 123.864 603.477 125.364 596.659 125.364ZM596.75 112.182C600.447 112.182 603.538 111.167 606.023 109.136C608.508 107.076 610.356 104.318 611.568 100.864C612.811 97.4091 613.432 93.5606 613.432 89.3182C613.432 85.0455 612.811 81.1818 611.568 77.7273C610.356 74.2424 608.508 71.4697 606.023 69.4091C603.538 67.3485 600.447 66.3182 596.75 66.3182C592.962 66.3182 589.811 67.3485 587.295 69.4091C584.811 71.4697 582.947 74.2424 581.705 77.7273C580.492 81.1818 579.886 85.0455 579.886 89.3182C579.886 93.5606 580.492 97.4091 581.705 100.864C582.947 104.318 584.811 107.076 587.295 109.136C589.811 111.167 592.962 112.182 596.75 112.182ZM660.534 30.9091V124H644.08V30.9091H660.534ZM721.955 94.6364V54.1818H738.409V124H722.455V111.591H721.727C720.152 115.5 717.561 118.697 713.955 121.182C710.379 123.667 705.97 124.909 700.727 124.909C696.152 124.909 692.106 123.894 688.591 121.864C685.106 119.803 682.379 116.818 680.409 112.909C678.439 108.97 677.455 104.212 677.455 98.6364V54.1818H693.909V96.0909C693.909 100.515 695.121 104.03 697.545 106.636C699.97 109.242 703.152 110.545 707.091 110.545C709.515 110.545 711.864 109.955 714.136 108.773C716.409 107.591 718.273 105.833 719.727 103.5C721.212 101.136 721.955 98.1818 721.955 94.6364ZM790.193 54.1818V66.9091H750.057V54.1818H790.193ZM759.966 37.4545H776.42V103C776.42 105.212 776.754 106.909 777.42 108.091C778.117 109.242 779.027 110.03 780.148 110.455C781.269 110.879 782.511 111.091 783.875 111.091C784.905 111.091 785.845 111.015 786.693 110.864C787.572 110.712 788.239 110.576 788.693 110.455L791.466 123.318C790.587 123.621 789.33 123.955 787.693 124.318C786.087 124.682 784.117 124.894 781.784 124.955C777.663 125.076 773.951 124.455 770.648 123.091C767.345 121.697 764.723 119.545 762.784 116.636C760.875 113.727 759.936 110.091 759.966 105.727V37.4545ZM803.955 124V54.1818H820.409V124H803.955ZM812.227 44.2727C809.621 44.2727 807.379 43.4091 805.5 41.6818C803.621 39.9242 802.682 37.8182 802.682 35.3636C802.682 32.8788 803.621 30.7727 805.5 29.0454C807.379 27.2879 809.621 26.4091 812.227 26.4091C814.864 26.4091 817.106 27.2879 818.955 29.0454C820.833 30.7727 821.773 32.8788 821.773 35.3636C821.773 37.8182 820.833 39.9242 818.955 41.6818C817.106 43.4091 814.864 44.2727 812.227 44.2727ZM867.784 125.364C860.966 125.364 855.057 123.864 850.057 120.864C845.057 117.864 841.178 113.667 838.42 108.273C835.693 102.879 834.33 96.5758 834.33 89.3636C834.33 82.1515 835.693 75.8333 838.42 70.4091C841.178 64.9848 845.057 60.7727 850.057 57.7727C855.057 54.7727 860.966 53.2727 867.784 53.2727C874.602 53.2727 880.511 54.7727 885.511 57.7727C890.511 60.7727 894.375 64.9848 897.102 70.4091C899.86 75.8333 901.239 82.1515 901.239 89.3636C901.239 96.5758 899.86 102.879 897.102 108.273C894.375 113.667 890.511 117.864 885.511 120.864C880.511 123.864 874.602 125.364 867.784 125.364ZM867.875 112.182C871.572 112.182 874.663 111.167 877.148 109.136C879.633 107.076 881.481 104.318 882.693 100.864C883.936 97.4091 884.557 93.5606 884.557 89.3182C884.557 85.0455 883.936 81.1818 882.693 77.7273C881.481 74.2424 879.633 71.4697 877.148 69.4091C874.663 67.3485 871.572 66.3182 867.875 66.3182C864.087 66.3182 860.936 67.3485 858.42 69.4091C855.936 71.4697 854.072 74.2424 852.83 77.7273C851.617 81.1818 851.011 85.0455 851.011 89.3182C851.011 93.5606 851.617 97.4091 852.83 100.864C854.072 104.318 855.936 107.076 858.42 109.136C860.936 111.167 864.087 112.182 867.875 112.182ZM931.659 83.0909V124H915.205V54.1818H930.932V66.0455H931.75C933.356 62.1364 935.917 59.0303 939.432 56.7273C942.977 54.4242 947.356 53.2727 952.568 53.2727C957.386 53.2727 961.583 54.303 965.159 56.3636C968.765 58.4242 971.553 61.4091 973.523 65.3182C975.523 69.2273 976.508 73.9697 976.477 79.5455V124H960.023V82.0909C960.023 77.4242 958.811 73.7727 956.386 71.1364C953.992 68.5 950.674 67.1818 946.432 67.1818C943.553 67.1818 940.992 67.8182 938.75 69.0909C936.538 70.3333 934.795 72.1364 933.523 74.5C932.28 76.8636 931.659 79.7273 931.659 83.0909Z" fill="#08D763"/>
<path d="M119.216 186.58H114.966C114.845 185.883 114.621 185.265 114.295 184.727C113.97 184.182 113.564 183.72 113.08 183.341C112.595 182.962 112.042 182.678 111.42 182.489C110.807 182.292 110.144 182.193 109.432 182.193C108.167 182.193 107.045 182.511 106.068 183.148C105.091 183.777 104.326 184.701 103.773 185.92C103.22 187.133 102.943 188.614 102.943 190.364C102.943 192.144 103.22 193.644 103.773 194.864C104.333 196.076 105.098 196.992 106.068 197.614C107.045 198.227 108.163 198.534 109.42 198.534C110.117 198.534 110.769 198.443 111.375 198.261C111.989 198.072 112.538 197.795 113.023 197.432C113.515 197.068 113.928 196.621 114.261 196.091C114.602 195.561 114.837 194.955 114.966 194.273L119.216 194.295C119.057 195.402 118.712 196.439 118.182 197.409C117.659 198.379 116.973 199.235 116.125 199.977C115.277 200.712 114.284 201.288 113.148 201.705C112.011 202.114 110.75 202.318 109.364 202.318C107.318 202.318 105.492 201.845 103.886 200.898C102.28 199.951 101.015 198.583 100.091 196.795C99.1667 195.008 98.7045 192.864 98.7045 190.364C98.7045 187.856 99.1705 185.712 100.102 183.932C101.034 182.144 102.303 180.777 103.909 179.83C105.515 178.883 107.333 178.409 109.364 178.409C110.659 178.409 111.864 178.591 112.977 178.955C114.091 179.318 115.083 179.852 115.955 180.557C116.826 181.254 117.542 182.11 118.102 183.125C118.67 184.133 119.042 185.284 119.216 186.58ZM122.895 202V184.545H126.884V187.455H127.065C127.384 186.447 127.929 185.67 128.702 185.125C129.482 184.572 130.372 184.295 131.372 184.295C131.599 184.295 131.853 184.307 132.134 184.33C132.421 184.345 132.66 184.371 132.849 184.409V188.193C132.675 188.133 132.399 188.08 132.02 188.034C131.649 187.981 131.289 187.955 130.94 187.955C130.19 187.955 129.516 188.117 128.918 188.443C128.327 188.761 127.861 189.205 127.52 189.773C127.179 190.341 127.009 190.996 127.009 191.739V202H122.895ZM140.293 202.352C139.187 202.352 138.19 202.155 137.304 201.761C136.425 201.36 135.728 200.769 135.213 199.989C134.705 199.208 134.452 198.246 134.452 197.102C134.452 196.117 134.634 195.303 134.997 194.659C135.361 194.015 135.857 193.5 136.486 193.114C137.115 192.727 137.823 192.436 138.611 192.239C139.406 192.034 140.228 191.886 141.077 191.795C142.099 191.689 142.929 191.595 143.565 191.511C144.202 191.42 144.664 191.284 144.952 191.102C145.247 190.913 145.395 190.621 145.395 190.227V190.159C145.395 189.303 145.141 188.64 144.634 188.17C144.126 187.701 143.395 187.466 142.44 187.466C141.433 187.466 140.634 187.686 140.043 188.125C139.459 188.564 139.065 189.083 138.861 189.682L135.02 189.136C135.323 188.076 135.823 187.189 136.52 186.477C137.217 185.758 138.069 185.22 139.077 184.864C140.084 184.5 141.198 184.318 142.418 184.318C143.259 184.318 144.096 184.417 144.929 184.614C145.762 184.811 146.524 185.136 147.213 185.591C147.902 186.038 148.455 186.648 148.872 187.42C149.296 188.193 149.509 189.159 149.509 190.318V202H145.554V199.602H145.418C145.168 200.087 144.815 200.542 144.361 200.966C143.914 201.383 143.349 201.72 142.668 201.977C141.993 202.227 141.202 202.352 140.293 202.352ZM141.361 199.33C142.187 199.33 142.902 199.167 143.509 198.841C144.115 198.508 144.58 198.068 144.906 197.523C145.24 196.977 145.406 196.383 145.406 195.739V193.682C145.277 193.788 145.058 193.886 144.747 193.977C144.444 194.068 144.103 194.148 143.724 194.216C143.346 194.284 142.971 194.345 142.599 194.398C142.228 194.451 141.906 194.496 141.634 194.534C141.02 194.617 140.471 194.754 139.986 194.943C139.501 195.133 139.118 195.398 138.838 195.739C138.558 196.072 138.418 196.504 138.418 197.034C138.418 197.792 138.694 198.364 139.247 198.75C139.8 199.136 140.505 199.33 141.361 199.33ZM162.486 184.545V187.727H152.168V184.545H162.486ZM154.747 202V182.898C154.747 181.723 154.99 180.746 155.474 179.966C155.967 179.186 156.626 178.602 157.452 178.216C158.277 177.83 159.194 177.636 160.202 177.636C160.914 177.636 161.546 177.693 162.099 177.807C162.652 177.92 163.062 178.023 163.327 178.114L162.509 181.295C162.334 181.242 162.115 181.189 161.849 181.136C161.584 181.076 161.289 181.045 160.963 181.045C160.198 181.045 159.656 181.231 159.338 181.602C159.027 181.966 158.872 182.489 158.872 183.17V202H154.747ZM174.423 184.545V187.727H164.389V184.545H174.423ZM166.866 180.364H170.98V196.75C170.98 197.303 171.063 197.727 171.23 198.023C171.404 198.311 171.632 198.508 171.912 198.614C172.192 198.72 172.503 198.773 172.844 198.773C173.101 198.773 173.336 198.754 173.548 198.716C173.768 198.678 173.935 198.644 174.048 198.614L174.741 201.83C174.522 201.905 174.207 201.989 173.798 202.08C173.397 202.17 172.904 202.223 172.321 202.239C171.291 202.269 170.363 202.114 169.537 201.773C168.711 201.424 168.056 200.886 167.571 200.159C167.094 199.432 166.859 198.523 166.866 197.432V180.364ZM177.864 202V184.545H181.977V202H177.864ZM179.932 182.068C179.28 182.068 178.72 181.852 178.25 181.42C177.78 180.981 177.545 180.455 177.545 179.841C177.545 179.22 177.78 178.693 178.25 178.261C178.72 177.822 179.28 177.602 179.932 177.602C180.591 177.602 181.152 177.822 181.614 178.261C182.083 178.693 182.318 179.22 182.318 179.841C182.318 180.455 182.083 180.981 181.614 181.42C181.152 181.852 180.591 182.068 179.932 182.068ZM190.321 191.773V202H186.207V184.545H190.139V187.511H190.344C190.745 186.534 191.385 185.758 192.264 185.182C193.151 184.606 194.245 184.318 195.548 184.318C196.753 184.318 197.802 184.576 198.696 185.091C199.598 185.606 200.295 186.352 200.787 187.33C201.287 188.307 201.533 189.492 201.526 190.886V202H197.412V191.523C197.412 190.356 197.109 189.443 196.503 188.784C195.904 188.125 195.075 187.795 194.014 187.795C193.295 187.795 192.654 187.955 192.094 188.273C191.541 188.583 191.105 189.034 190.787 189.625C190.476 190.216 190.321 190.932 190.321 191.773ZM213.298 208.909C211.821 208.909 210.552 208.708 209.491 208.307C208.431 207.913 207.579 207.383 206.935 206.716C206.291 206.049 205.844 205.311 205.594 204.5L209.298 203.602C209.465 203.943 209.707 204.28 210.026 204.614C210.344 204.955 210.772 205.235 211.31 205.455C211.855 205.682 212.541 205.795 213.366 205.795C214.533 205.795 215.499 205.511 216.264 204.943C217.029 204.383 217.412 203.458 217.412 202.17V198.864H217.207C216.995 199.288 216.685 199.723 216.276 200.17C215.874 200.617 215.34 200.992 214.673 201.295C214.014 201.598 213.185 201.75 212.185 201.75C210.844 201.75 209.628 201.436 208.537 200.807C207.454 200.17 206.59 199.223 205.946 197.966C205.31 196.701 204.991 195.117 204.991 193.216C204.991 191.299 205.31 189.682 205.946 188.364C206.59 187.038 207.457 186.034 208.548 185.352C209.639 184.663 210.855 184.318 212.196 184.318C213.219 184.318 214.06 184.492 214.719 184.841C215.385 185.182 215.916 185.595 216.31 186.08C216.704 186.557 217.003 187.008 217.207 187.432H217.435V184.545H221.491V202.284C221.491 203.777 221.135 205.011 220.423 205.989C219.711 206.966 218.738 207.697 217.503 208.182C216.268 208.667 214.866 208.909 213.298 208.909ZM213.332 198.523C214.204 198.523 214.946 198.311 215.56 197.886C216.173 197.462 216.639 196.852 216.957 196.057C217.276 195.261 217.435 194.307 217.435 193.193C217.435 192.095 217.276 191.133 216.957 190.307C216.647 189.481 216.185 188.841 215.571 188.386C214.965 187.924 214.219 187.693 213.332 187.693C212.416 187.693 211.651 187.932 211.037 188.409C210.423 188.886 209.961 189.542 209.651 190.375C209.34 191.201 209.185 192.14 209.185 193.193C209.185 194.261 209.34 195.197 209.651 196C209.969 196.795 210.435 197.417 211.048 197.864C211.67 198.303 212.431 198.523 213.332 198.523ZM534.58 184.545V187.727H524.261V184.545H534.58ZM526.841 202V182.898C526.841 181.723 527.083 180.746 527.568 179.966C528.061 179.186 528.72 178.602 529.545 178.216C530.371 177.83 531.288 177.636 532.295 177.636C533.008 177.636 533.64 177.693 534.193 177.807C534.746 177.92 535.155 178.023 535.42 178.114L534.602 181.295C534.428 181.242 534.208 181.189 533.943 181.136C533.678 181.076 533.383 181.045 533.057 181.045C532.292 181.045 531.75 181.231 531.432 181.602C531.121 181.966 530.966 182.489 530.966 183.17V202H526.841ZM544.759 202.341C543.054 202.341 541.577 201.966 540.327 201.216C539.077 200.466 538.107 199.417 537.418 198.068C536.736 196.72 536.395 195.144 536.395 193.341C536.395 191.538 536.736 189.958 537.418 188.602C538.107 187.246 539.077 186.193 540.327 185.443C541.577 184.693 543.054 184.318 544.759 184.318C546.463 184.318 547.94 184.693 549.19 185.443C550.44 186.193 551.406 187.246 552.088 188.602C552.777 189.958 553.122 191.538 553.122 193.341C553.122 195.144 552.777 196.72 552.088 198.068C551.406 199.417 550.44 200.466 549.19 201.216C547.94 201.966 546.463 202.341 544.759 202.341ZM544.781 199.045C545.705 199.045 546.478 198.792 547.099 198.284C547.721 197.769 548.183 197.08 548.486 196.216C548.796 195.352 548.952 194.39 548.952 193.33C548.952 192.261 548.796 191.295 548.486 190.432C548.183 189.561 547.721 188.867 547.099 188.352C546.478 187.837 545.705 187.58 544.781 187.58C543.834 187.58 543.046 187.837 542.418 188.352C541.796 188.867 541.33 189.561 541.02 190.432C540.717 191.295 540.565 192.261 540.565 193.33C540.565 194.39 540.717 195.352 541.02 196.216C541.33 197.08 541.796 197.769 542.418 198.284C543.046 198.792 543.834 199.045 544.781 199.045ZM556.614 202V184.545H560.602V187.455H560.784C561.102 186.447 561.648 185.67 562.42 185.125C563.201 184.572 564.091 184.295 565.091 184.295C565.318 184.295 565.572 184.307 565.852 184.33C566.14 184.345 566.379 184.371 566.568 184.409V188.193C566.394 188.133 566.117 188.08 565.739 188.034C565.367 187.981 565.008 187.955 564.659 187.955C563.909 187.955 563.235 188.117 562.636 188.443C562.045 188.761 561.58 189.205 561.239 189.773C560.898 190.341 560.727 190.996 560.727 191.739V202H556.614ZM585.955 184.545V187.727H575.92V184.545H585.955ZM578.398 180.364H582.511V196.75C582.511 197.303 582.595 197.727 582.761 198.023C582.936 198.311 583.163 198.508 583.443 198.614C583.723 198.72 584.034 198.773 584.375 198.773C584.633 198.773 584.867 198.754 585.08 198.716C585.299 198.678 585.466 198.644 585.58 198.614L586.273 201.83C586.053 201.905 585.739 201.989 585.33 202.08C584.928 202.17 584.436 202.223 583.852 202.239C582.822 202.269 581.894 202.114 581.068 201.773C580.242 201.424 579.587 200.886 579.102 200.159C578.625 199.432 578.39 198.523 578.398 197.432V180.364ZM593.884 191.773V202H589.77V178.727H593.793V187.511H593.997C594.406 186.527 595.039 185.75 595.895 185.182C596.759 184.606 597.857 184.318 599.19 184.318C600.402 184.318 601.459 184.572 602.361 185.08C603.262 185.587 603.959 186.33 604.452 187.307C604.952 188.284 605.202 189.477 605.202 190.886V202H601.088V191.523C601.088 190.348 600.785 189.436 600.179 188.784C599.58 188.125 598.74 187.795 597.656 187.795C596.929 187.795 596.277 187.955 595.702 188.273C595.134 188.583 594.687 189.034 594.361 189.625C594.043 190.216 593.884 190.932 593.884 191.773ZM617.122 202.341C615.372 202.341 613.861 201.977 612.588 201.25C611.323 200.515 610.349 199.477 609.668 198.136C608.986 196.788 608.645 195.201 608.645 193.375C608.645 191.58 608.986 190.004 609.668 188.648C610.357 187.284 611.319 186.223 612.554 185.466C613.789 184.701 615.24 184.318 616.906 184.318C617.982 184.318 618.997 184.492 619.952 184.841C620.914 185.182 621.762 185.712 622.497 186.432C623.24 187.152 623.823 188.068 624.247 189.182C624.671 190.288 624.884 191.606 624.884 193.136V194.398H610.577V191.625H620.94C620.933 190.837 620.762 190.136 620.429 189.523C620.096 188.902 619.63 188.413 619.031 188.057C618.44 187.701 617.751 187.523 616.963 187.523C616.122 187.523 615.384 187.727 614.747 188.136C614.111 188.538 613.615 189.068 613.259 189.727C612.91 190.379 612.732 191.095 612.724 191.875V194.295C612.724 195.311 612.91 196.182 613.281 196.909C613.652 197.629 614.171 198.182 614.838 198.568C615.505 198.947 616.285 199.136 617.179 199.136C617.777 199.136 618.319 199.053 618.804 198.886C619.289 198.712 619.709 198.458 620.065 198.125C620.421 197.792 620.69 197.379 620.872 196.886L624.713 197.318C624.471 198.333 624.009 199.22 623.327 199.977C622.652 200.727 621.789 201.311 620.736 201.727C619.683 202.136 618.478 202.341 617.122 202.341ZM656.403 186.58H652.153C652.032 185.883 651.809 185.265 651.483 184.727C651.157 184.182 650.752 183.72 650.267 183.341C649.782 182.962 649.229 182.678 648.608 182.489C647.994 182.292 647.331 182.193 646.619 182.193C645.354 182.193 644.233 182.511 643.256 183.148C642.278 183.777 641.513 184.701 640.96 185.92C640.407 187.133 640.131 188.614 640.131 190.364C640.131 192.144 640.407 193.644 640.96 194.864C641.521 196.076 642.286 196.992 643.256 197.614C644.233 198.227 645.35 198.534 646.608 198.534C647.305 198.534 647.956 198.443 648.562 198.261C649.176 198.072 649.725 197.795 650.21 197.432C650.703 197.068 651.116 196.621 651.449 196.091C651.79 195.561 652.025 194.955 652.153 194.273L656.403 194.295C656.244 195.402 655.9 196.439 655.369 197.409C654.847 198.379 654.161 199.235 653.312 199.977C652.464 200.712 651.472 201.288 650.335 201.705C649.199 202.114 647.938 202.318 646.551 202.318C644.506 202.318 642.68 201.845 641.074 200.898C639.468 199.951 638.203 198.583 637.278 196.795C636.354 195.008 635.892 192.864 635.892 190.364C635.892 187.856 636.358 185.712 637.29 183.932C638.222 182.144 639.491 180.777 641.097 179.83C642.703 178.883 644.521 178.409 646.551 178.409C647.847 178.409 649.051 178.591 650.165 178.955C651.278 179.318 652.271 179.852 653.142 180.557C654.013 181.254 654.729 182.11 655.29 183.125C655.858 184.133 656.229 185.284 656.403 186.58ZM667.696 202.341C665.991 202.341 664.514 201.966 663.264 201.216C662.014 200.466 661.045 199.417 660.355 198.068C659.673 196.72 659.332 195.144 659.332 193.341C659.332 191.538 659.673 189.958 660.355 188.602C661.045 187.246 662.014 186.193 663.264 185.443C664.514 184.693 665.991 184.318 667.696 184.318C669.401 184.318 670.878 184.693 672.128 185.443C673.378 186.193 674.344 187.246 675.026 188.602C675.715 189.958 676.06 191.538 676.06 193.341C676.06 195.144 675.715 196.72 675.026 198.068C674.344 199.417 673.378 200.466 672.128 201.216C670.878 201.966 669.401 202.341 667.696 202.341ZM667.719 199.045C668.643 199.045 669.416 198.792 670.037 198.284C670.658 197.769 671.12 197.08 671.423 196.216C671.734 195.352 671.889 194.39 671.889 193.33C671.889 192.261 671.734 191.295 671.423 190.432C671.12 189.561 670.658 188.867 670.037 188.352C669.416 187.837 668.643 187.58 667.719 187.58C666.772 187.58 665.984 187.837 665.355 188.352C664.734 188.867 664.268 189.561 663.957 190.432C663.654 191.295 663.503 192.261 663.503 193.33C663.503 194.39 663.654 195.352 663.957 196.216C664.268 197.08 664.734 197.769 665.355 198.284C665.984 198.792 666.772 199.045 667.719 199.045ZM690.676 194.659V184.545H694.79V202H690.801V198.898H690.619C690.225 199.875 689.578 200.674 688.676 201.295C687.782 201.917 686.68 202.227 685.369 202.227C684.225 202.227 683.214 201.973 682.335 201.466C681.464 200.951 680.782 200.205 680.29 199.227C679.797 198.242 679.551 197.053 679.551 195.659V184.545H683.665V195.023C683.665 196.129 683.968 197.008 684.574 197.659C685.18 198.311 685.975 198.636 686.96 198.636C687.566 198.636 688.153 198.489 688.722 198.193C689.29 197.898 689.756 197.458 690.119 196.875C690.491 196.284 690.676 195.545 690.676 194.659ZM703.134 191.773V202H699.02V184.545H702.952V187.511H703.156C703.558 186.534 704.198 185.758 705.077 185.182C705.963 184.606 707.058 184.318 708.361 184.318C709.565 184.318 710.615 184.576 711.509 185.091C712.41 185.606 713.107 186.352 713.599 187.33C714.099 188.307 714.346 189.492 714.338 190.886V202H710.224V191.523C710.224 190.356 709.921 189.443 709.315 188.784C708.717 188.125 707.887 187.795 706.827 187.795C706.107 187.795 705.467 187.955 704.906 188.273C704.353 188.583 703.918 189.034 703.599 189.625C703.289 190.216 703.134 190.932 703.134 191.773ZM727.236 184.545V187.727H717.202V184.545H727.236ZM719.679 180.364H723.793V196.75C723.793 197.303 723.876 197.727 724.043 198.023C724.217 198.311 724.444 198.508 724.724 198.614C725.005 198.72 725.315 198.773 725.656 198.773C725.914 198.773 726.149 198.754 726.361 198.716C726.58 198.678 726.747 198.644 726.861 198.614L727.554 201.83C727.334 201.905 727.02 201.989 726.611 202.08C726.209 202.17 725.717 202.223 725.134 202.239C724.103 202.269 723.175 202.114 722.349 201.773C721.524 201.424 720.868 200.886 720.384 200.159C719.906 199.432 719.671 198.523 719.679 197.432V180.364ZM730.676 202V184.545H734.665V187.455H734.847C735.165 186.447 735.71 185.67 736.483 185.125C737.263 184.572 738.153 184.295 739.153 184.295C739.381 184.295 739.634 184.307 739.915 184.33C740.203 184.345 740.441 184.371 740.631 184.409V188.193C740.456 188.133 740.18 188.08 739.801 188.034C739.43 187.981 739.07 187.955 738.722 187.955C737.972 187.955 737.297 188.117 736.699 188.443C736.108 188.761 735.642 189.205 735.301 189.773C734.96 190.341 734.79 190.996 734.79 191.739V202H730.676ZM746.452 208.545C745.891 208.545 745.372 208.5 744.895 208.409C744.425 208.326 744.05 208.227 743.77 208.114L744.724 204.909C745.323 205.083 745.857 205.167 746.327 205.159C746.796 205.152 747.209 205.004 747.565 204.716C747.929 204.436 748.236 203.966 748.486 203.307L748.838 202.364L742.509 184.545H746.872L750.895 197.727H751.077L755.111 184.545H759.486L752.497 204.114C752.171 205.038 751.74 205.83 751.202 206.489C750.664 207.155 750.005 207.663 749.224 208.011C748.452 208.367 747.527 208.545 746.452 208.545ZM777.224 202.341C775.634 202.341 774.266 202.053 773.122 201.477C771.978 200.902 771.096 200.125 770.474 199.148C769.861 198.163 769.554 197.053 769.554 195.818C769.554 194.886 769.743 194.061 770.122 193.341C770.509 192.621 771.039 191.955 771.713 191.341C772.395 190.727 773.183 190.117 774.077 189.511L778.202 186.705C778.808 186.311 779.266 185.894 779.577 185.455C779.895 185.015 780.054 184.5 780.054 183.909C780.054 183.409 779.842 182.936 779.418 182.489C779.001 182.042 778.425 181.818 777.69 181.818C777.198 181.818 776.762 181.936 776.384 182.17C776.012 182.398 775.721 182.697 775.509 183.068C775.304 183.439 775.202 183.833 775.202 184.25C775.202 184.758 775.342 185.273 775.622 185.795C775.91 186.318 776.281 186.86 776.736 187.42C777.198 187.981 777.69 188.576 778.213 189.205L789.134 202H784.679L775.611 191.614C774.937 190.826 774.285 190.049 773.656 189.284C773.035 188.519 772.524 187.723 772.122 186.898C771.728 186.064 771.531 185.163 771.531 184.193C771.531 183.095 771.785 182.114 772.293 181.25C772.8 180.379 773.509 179.693 774.418 179.193C775.334 178.693 776.406 178.443 777.634 178.443C778.861 178.443 779.914 178.686 780.793 179.17C781.671 179.655 782.349 180.299 782.827 181.102C783.304 181.905 783.543 182.78 783.543 183.727C783.543 184.826 783.27 185.811 782.724 186.682C782.179 187.545 781.421 188.33 780.452 189.034L775.747 192.477C774.974 193.038 774.421 193.606 774.088 194.182C773.755 194.75 773.588 195.235 773.588 195.636C773.588 196.25 773.743 196.807 774.054 197.307C774.365 197.807 774.8 198.208 775.361 198.511C775.929 198.807 776.592 198.955 777.349 198.955C778.183 198.955 779.005 198.769 779.815 198.398C780.626 198.019 781.365 197.481 782.031 196.784C782.698 196.087 783.228 195.254 783.622 194.284C784.016 193.307 784.213 192.223 784.213 191.034H787.747C787.747 192.504 787.584 193.784 787.259 194.875C786.933 195.958 786.512 196.875 785.997 197.625C785.482 198.367 784.937 198.962 784.361 199.409C784.179 199.538 784.005 199.667 783.838 199.795C783.671 199.924 783.497 200.053 783.315 200.182C782.497 200.924 781.539 201.47 780.44 201.818C779.349 202.167 778.277 202.341 777.224 202.341ZM799.608 202V178.727H803.824V188.58H814.608V178.727H818.835V202H814.608V192.114H803.824V202H799.608ZM830.852 202.341C829.148 202.341 827.67 201.966 826.42 201.216C825.17 200.466 824.201 199.417 823.511 198.068C822.83 196.72 822.489 195.144 822.489 193.341C822.489 191.538 822.83 189.958 823.511 188.602C824.201 187.246 825.17 186.193 826.42 185.443C827.67 184.693 829.148 184.318 830.852 184.318C832.557 184.318 834.034 184.693 835.284 185.443C836.534 186.193 837.5 187.246 838.182 188.602C838.871 189.958 839.216 191.538 839.216 193.341C839.216 195.144 838.871 196.72 838.182 198.068C837.5 199.417 836.534 200.466 835.284 201.216C834.034 201.966 832.557 202.341 830.852 202.341ZM830.875 199.045C831.799 199.045 832.572 198.792 833.193 198.284C833.814 197.769 834.277 197.08 834.58 196.216C834.89 195.352 835.045 194.39 835.045 193.33C835.045 192.261 834.89 191.295 834.58 190.432C834.277 189.561 833.814 188.867 833.193 188.352C832.572 187.837 831.799 187.58 830.875 187.58C829.928 187.58 829.14 187.837 828.511 188.352C827.89 188.867 827.424 189.561 827.114 190.432C826.811 191.295 826.659 192.261 826.659 193.33C826.659 194.39 826.811 195.352 827.114 196.216C827.424 197.08 827.89 197.769 828.511 198.284C829.14 198.792 829.928 199.045 830.875 199.045ZM842.707 202V184.545H846.639V187.511H846.844C847.207 186.511 847.81 185.731 848.651 185.17C849.491 184.602 850.495 184.318 851.662 184.318C852.844 184.318 853.84 184.606 854.651 185.182C855.469 185.75 856.045 186.527 856.378 187.511H856.56C856.946 186.542 857.598 185.769 858.514 185.193C859.438 184.61 860.533 184.318 861.798 184.318C863.404 184.318 864.715 184.826 865.73 185.841C866.745 186.856 867.253 188.337 867.253 190.284V202H863.128V190.92C863.128 189.837 862.84 189.045 862.264 188.545C861.688 188.038 860.984 187.784 860.151 187.784C859.158 187.784 858.382 188.095 857.821 188.716C857.268 189.33 856.991 190.129 856.991 191.114V202H852.957V190.75C852.957 189.848 852.685 189.129 852.139 188.591C851.601 188.053 850.897 187.784 850.026 187.784C849.435 187.784 848.897 187.936 848.412 188.239C847.927 188.534 847.541 188.955 847.253 189.5C846.965 190.038 846.821 190.667 846.821 191.386V202H842.707ZM879.153 202.341C877.403 202.341 875.892 201.977 874.619 201.25C873.354 200.515 872.381 199.477 871.699 198.136C871.017 196.788 870.676 195.201 870.676 193.375C870.676 191.58 871.017 190.004 871.699 188.648C872.388 187.284 873.35 186.223 874.585 185.466C875.82 184.701 877.271 184.318 878.938 184.318C880.013 184.318 881.028 184.492 881.983 184.841C882.945 185.182 883.794 185.712 884.528 186.432C885.271 187.152 885.854 188.068 886.278 189.182C886.703 190.288 886.915 191.606 886.915 193.136V194.398H872.608V191.625H882.972C882.964 190.837 882.794 190.136 882.46 189.523C882.127 188.902 881.661 188.413 881.062 188.057C880.472 187.701 879.782 187.523 878.994 187.523C878.153 187.523 877.415 187.727 876.778 188.136C876.142 188.538 875.646 189.068 875.29 189.727C874.941 190.379 874.763 191.095 874.756 191.875V194.295C874.756 195.311 874.941 196.182 875.312 196.909C875.684 197.629 876.203 198.182 876.869 198.568C877.536 198.947 878.316 199.136 879.21 199.136C879.809 199.136 880.35 199.053 880.835 198.886C881.32 198.712 881.741 198.458 882.097 198.125C882.453 197.792 882.722 197.379 882.903 196.886L886.744 197.318C886.502 198.333 886.04 199.22 885.358 199.977C884.684 200.727 883.82 201.311 882.767 201.727C881.714 202.136 880.509 202.341 879.153 202.341Z" fill="#A6A6A6"/>
<path d="M246.474 185.125C246.368 184.133 245.921 183.36 245.134 182.807C244.353 182.254 243.338 181.977 242.088 181.977C241.209 181.977 240.455 182.11 239.827 182.375C239.198 182.64 238.717 183 238.384 183.455C238.05 183.909 237.88 184.428 237.872 185.011C237.872 185.496 237.982 185.917 238.202 186.273C238.429 186.629 238.736 186.932 239.122 187.182C239.509 187.424 239.937 187.629 240.406 187.795C240.876 187.962 241.349 188.102 241.827 188.216L244.009 188.761C244.887 188.966 245.732 189.242 246.543 189.591C247.361 189.939 248.092 190.379 248.736 190.909C249.387 191.439 249.902 192.08 250.281 192.83C250.66 193.58 250.849 194.458 250.849 195.466C250.849 196.83 250.501 198.03 249.804 199.068C249.107 200.098 248.099 200.905 246.781 201.489C245.471 202.064 243.884 202.352 242.02 202.352C240.209 202.352 238.637 202.072 237.304 201.511C235.978 200.951 234.94 200.133 234.19 199.057C233.448 197.981 233.046 196.67 232.986 195.125H237.134C237.194 195.936 237.444 196.61 237.884 197.148C238.323 197.686 238.895 198.087 239.599 198.352C240.312 198.617 241.107 198.75 241.986 198.75C242.902 198.75 243.705 198.614 244.395 198.341C245.092 198.061 245.637 197.674 246.031 197.182C246.425 196.682 246.626 196.098 246.634 195.432C246.626 194.826 246.448 194.326 246.099 193.932C245.751 193.53 245.262 193.197 244.634 192.932C244.012 192.659 243.285 192.417 242.452 192.205L239.804 191.523C237.887 191.03 236.372 190.284 235.259 189.284C234.152 188.277 233.599 186.939 233.599 185.273C233.599 183.902 233.971 182.701 234.713 181.67C235.463 180.64 236.482 179.841 237.77 179.273C239.058 178.697 240.516 178.409 242.145 178.409C243.796 178.409 245.243 178.697 246.486 179.273C247.736 179.841 248.717 180.633 249.429 181.648C250.141 182.655 250.509 183.814 250.531 185.125H246.474ZM262.04 202.341C260.335 202.341 258.858 201.966 257.608 201.216C256.358 200.466 255.388 199.417 254.699 198.068C254.017 196.72 253.676 195.144 253.676 193.341C253.676 191.538 254.017 189.958 254.699 188.602C255.388 187.246 256.358 186.193 257.608 185.443C258.858 184.693 260.335 184.318 262.04 184.318C263.744 184.318 265.222 184.693 266.472 185.443C267.722 186.193 268.688 187.246 269.369 188.602C270.059 189.958 270.403 191.538 270.403 193.341C270.403 195.144 270.059 196.72 269.369 198.068C268.688 199.417 267.722 200.466 266.472 201.216C265.222 201.966 263.744 202.341 262.04 202.341ZM262.062 199.045C262.987 199.045 263.759 198.792 264.381 198.284C265.002 197.769 265.464 197.08 265.767 196.216C266.078 195.352 266.233 194.39 266.233 193.33C266.233 192.261 266.078 191.295 265.767 190.432C265.464 189.561 265.002 188.867 264.381 188.352C263.759 187.837 262.987 187.58 262.062 187.58C261.116 187.58 260.328 187.837 259.699 188.352C259.078 188.867 258.612 189.561 258.301 190.432C257.998 191.295 257.847 192.261 257.847 193.33C257.847 194.39 257.998 195.352 258.301 196.216C258.612 197.08 259.078 197.769 259.699 198.284C260.328 198.792 261.116 199.045 262.062 199.045ZM278.009 178.727V202H273.895V178.727H278.009ZM293.364 194.659V184.545H297.477V202H293.489V198.898H293.307C292.913 199.875 292.265 200.674 291.364 201.295C290.47 201.917 289.367 202.227 288.057 202.227C286.913 202.227 285.902 201.973 285.023 201.466C284.152 200.951 283.47 200.205 282.977 199.227C282.485 198.242 282.239 197.053 282.239 195.659V184.545H286.352V195.023C286.352 196.129 286.655 197.008 287.261 197.659C287.867 198.311 288.663 198.636 289.648 198.636C290.254 198.636 290.841 198.489 291.409 198.193C291.977 197.898 292.443 197.458 292.807 196.875C293.178 196.284 293.364 195.545 293.364 194.659ZM310.423 184.545V187.727H300.389V184.545H310.423ZM302.866 180.364H306.98V196.75C306.98 197.303 307.063 197.727 307.23 198.023C307.404 198.311 307.632 198.508 307.912 198.614C308.192 198.72 308.503 198.773 308.844 198.773C309.101 198.773 309.336 198.754 309.548 198.716C309.768 198.678 309.935 198.644 310.048 198.614L310.741 201.83C310.522 201.905 310.207 201.989 309.798 202.08C309.397 202.17 308.904 202.223 308.321 202.239C307.291 202.269 306.363 202.114 305.537 201.773C304.711 201.424 304.056 200.886 303.571 200.159C303.094 199.432 302.859 198.523 302.866 197.432V180.364ZM313.864 202V184.545H317.977V202H313.864ZM315.932 182.068C315.28 182.068 314.72 181.852 314.25 181.42C313.78 180.981 313.545 180.455 313.545 179.841C313.545 179.22 313.78 178.693 314.25 178.261C314.72 177.822 315.28 177.602 315.932 177.602C316.591 177.602 317.152 177.822 317.614 178.261C318.083 178.693 318.318 179.22 318.318 179.841C318.318 180.455 318.083 180.981 317.614 181.42C317.152 181.852 316.591 182.068 315.932 182.068ZM329.821 202.341C328.116 202.341 326.639 201.966 325.389 201.216C324.139 200.466 323.17 199.417 322.48 198.068C321.798 196.72 321.457 195.144 321.457 193.341C321.457 191.538 321.798 189.958 322.48 188.602C323.17 187.246 324.139 186.193 325.389 185.443C326.639 184.693 328.116 184.318 329.821 184.318C331.526 184.318 333.003 184.693 334.253 185.443C335.503 186.193 336.469 187.246 337.151 188.602C337.84 189.958 338.185 191.538 338.185 193.341C338.185 195.144 337.84 196.72 337.151 198.068C336.469 199.417 335.503 200.466 334.253 201.216C333.003 201.966 331.526 202.341 329.821 202.341ZM329.844 199.045C330.768 199.045 331.541 198.792 332.162 198.284C332.783 197.769 333.245 197.08 333.548 196.216C333.859 195.352 334.014 194.39 334.014 193.33C334.014 192.261 333.859 191.295 333.548 190.432C333.245 189.561 332.783 188.867 332.162 188.352C331.541 187.837 330.768 187.58 329.844 187.58C328.897 187.58 328.109 187.837 327.48 188.352C326.859 188.867 326.393 189.561 326.082 190.432C325.779 191.295 325.628 192.261 325.628 193.33C325.628 194.39 325.779 195.352 326.082 196.216C326.393 197.08 326.859 197.769 327.48 198.284C328.109 198.792 328.897 199.045 329.844 199.045ZM345.79 191.773V202H341.676V184.545H345.608V187.511H345.812C346.214 186.534 346.854 185.758 347.733 185.182C348.619 184.606 349.714 184.318 351.017 184.318C352.222 184.318 353.271 184.576 354.165 185.091C355.066 185.606 355.763 186.352 356.256 187.33C356.756 188.307 357.002 189.492 356.994 190.886V202H352.881V191.523C352.881 190.356 352.578 189.443 351.972 188.784C351.373 188.125 350.544 187.795 349.483 187.795C348.763 187.795 348.123 187.955 347.562 188.273C347.009 188.583 346.574 189.034 346.256 189.625C345.945 190.216 345.79 190.932 345.79 191.773ZM372.716 202L367.784 184.545H371.977L375.045 196.818H375.205L378.341 184.545H382.489L385.625 196.75H385.795L388.818 184.545H393.023L388.08 202H383.795L380.523 190.205H380.284L377.011 202H372.716ZM395.895 202V184.545H400.009V202H395.895ZM397.963 182.068C397.312 182.068 396.751 181.852 396.281 181.42C395.812 180.981 395.577 180.455 395.577 179.841C395.577 179.22 395.812 178.693 396.281 178.261C396.751 177.822 397.312 177.602 397.963 177.602C398.622 177.602 399.183 177.822 399.645 178.261C400.115 178.693 400.349 179.22 400.349 179.841C400.349 180.455 400.115 180.981 399.645 181.42C399.183 181.852 398.622 182.068 397.963 182.068ZM412.955 184.545V187.727H402.92V184.545H412.955ZM405.398 180.364H409.511V196.75C409.511 197.303 409.595 197.727 409.761 198.023C409.936 198.311 410.163 198.508 410.443 198.614C410.723 198.72 411.034 198.773 411.375 198.773C411.633 198.773 411.867 198.754 412.08 198.716C412.299 198.678 412.466 198.644 412.58 198.614L413.273 201.83C413.053 201.905 412.739 201.989 412.33 202.08C411.928 202.17 411.436 202.223 410.852 202.239C409.822 202.269 408.894 202.114 408.068 201.773C407.242 201.424 406.587 200.886 406.102 200.159C405.625 199.432 405.39 198.523 405.398 197.432V180.364ZM420.884 191.773V202H416.77V178.727H420.793V187.511H420.997C421.406 186.527 422.039 185.75 422.895 185.182C423.759 184.606 424.857 184.318 426.19 184.318C427.402 184.318 428.459 184.572 429.361 185.08C430.262 185.587 430.959 186.33 431.452 187.307C431.952 188.284 432.202 189.477 432.202 190.886V202H428.088V191.523C428.088 190.348 427.785 189.436 427.179 188.784C426.58 188.125 425.74 187.795 424.656 187.795C423.929 187.795 423.277 187.955 422.702 188.273C422.134 188.583 421.687 189.034 421.361 189.625C421.043 190.216 420.884 190.932 420.884 191.773ZM448.446 178.727V202H444.332V178.727H448.446ZM460.29 202.341C458.585 202.341 457.108 201.966 455.858 201.216C454.608 200.466 453.638 199.417 452.949 198.068C452.267 196.72 451.926 195.144 451.926 193.341C451.926 191.538 452.267 189.958 452.949 188.602C453.638 187.246 454.608 186.193 455.858 185.443C457.108 184.693 458.585 184.318 460.29 184.318C461.994 184.318 463.472 184.693 464.722 185.443C465.972 186.193 466.938 187.246 467.619 188.602C468.309 189.958 468.653 191.538 468.653 193.341C468.653 195.144 468.309 196.72 467.619 198.068C466.938 199.417 465.972 200.466 464.722 201.216C463.472 201.966 461.994 202.341 460.29 202.341ZM460.312 199.045C461.237 199.045 462.009 198.792 462.631 198.284C463.252 197.769 463.714 197.08 464.017 196.216C464.328 195.352 464.483 194.39 464.483 193.33C464.483 192.261 464.328 191.295 464.017 190.432C463.714 189.561 463.252 188.867 462.631 188.352C462.009 187.837 461.237 187.58 460.312 187.58C459.366 187.58 458.578 187.837 457.949 188.352C457.328 188.867 456.862 189.561 456.551 190.432C456.248 191.295 456.097 192.261 456.097 193.33C456.097 194.39 456.248 195.352 456.551 196.216C456.862 197.08 457.328 197.769 457.949 198.284C458.578 198.792 459.366 199.045 460.312 199.045ZM487.142 184.545L480.926 202H476.381L470.165 184.545H474.551L478.562 197.511H478.744L482.767 184.545H487.142ZM497.122 202.341C495.372 202.341 493.861 201.977 492.588 201.25C491.323 200.515 490.349 199.477 489.668 198.136C488.986 196.788 488.645 195.201 488.645 193.375C488.645 191.58 488.986 190.004 489.668 188.648C490.357 187.284 491.319 186.223 492.554 185.466C493.789 184.701 495.24 184.318 496.906 184.318C497.982 184.318 498.997 184.492 499.952 184.841C500.914 185.182 501.762 185.712 502.497 186.432C503.24 187.152 503.823 188.068 504.247 189.182C504.671 190.288 504.884 191.606 504.884 193.136V194.398H490.577V191.625H500.94C500.933 190.837 500.762 190.136 500.429 189.523C500.096 188.902 499.63 188.413 499.031 188.057C498.44 187.701 497.751 187.523 496.963 187.523C496.122 187.523 495.384 187.727 494.747 188.136C494.111 188.538 493.615 189.068 493.259 189.727C492.91 190.379 492.732 191.095 492.724 191.875V194.295C492.724 195.311 492.91 196.182 493.281 196.909C493.652 197.629 494.171 198.182 494.838 198.568C495.505 198.947 496.285 199.136 497.179 199.136C497.777 199.136 498.319 199.053 498.804 198.886C499.289 198.712 499.709 198.458 500.065 198.125C500.421 197.792 500.69 197.379 500.872 196.886L504.713 197.318C504.471 198.333 504.009 199.22 503.327 199.977C502.652 200.727 501.789 201.311 500.736 201.727C499.683 202.136 498.478 202.341 497.122 202.341ZM513.193 198.818L513.045 200.068C512.939 201.023 512.75 201.992 512.477 202.977C512.212 203.97 511.932 204.883 511.636 205.716C511.341 206.549 511.102 207.205 510.92 207.682H508.148C508.254 207.22 508.398 206.591 508.58 205.795C508.769 205 508.951 204.106 509.125 203.114C509.299 202.121 509.417 201.114 509.477 200.091L509.557 198.818H513.193Z" fill="#06D861"/>
<rect x="319" y="242" width="348" height="58" rx="29" fill="url(#paint0_linear_67_55)"/>
<path d="M408.397 282V260.182H416.174C417.864 260.182 419.267 260.473 420.382 261.055C421.504 261.638 422.342 262.444 422.896 263.474C423.45 264.496 423.727 265.679 423.727 267.021C423.727 268.357 423.447 269.532 422.886 270.548C422.332 271.556 421.494 272.341 420.371 272.902C419.256 273.463 417.854 273.744 416.163 273.744H410.272V270.91H415.865C416.93 270.91 417.797 270.757 418.464 270.452C419.139 270.146 419.633 269.702 419.945 269.12C420.258 268.538 420.414 267.838 420.414 267.021C420.414 266.197 420.254 265.484 419.935 264.88C419.622 264.276 419.129 263.815 418.454 263.495C417.786 263.168 416.909 263.005 415.822 263.005H411.689V282H408.397ZM419.168 272.156L424.558 282H420.808L415.524 272.156H419.168ZM441.763 260.182H445.066V274.532C445.066 276.059 444.707 277.412 443.99 278.591C443.273 279.763 442.264 280.686 440.964 281.361C439.665 282.028 438.141 282.362 436.394 282.362C434.654 282.362 433.134 282.028 431.835 281.361C430.535 280.686 429.526 279.763 428.809 278.591C428.092 277.412 427.733 276.059 427.733 274.532V260.182H431.025V274.266C431.025 275.253 431.241 276.13 431.675 276.897C432.115 277.664 432.737 278.268 433.539 278.708C434.342 279.141 435.293 279.358 436.394 279.358C437.502 279.358 438.457 279.141 439.26 278.708C440.07 278.268 440.688 277.664 441.114 276.897C441.547 276.13 441.763 275.253 441.763 274.266V260.182ZM449.852 282V260.182H453.144V270.601H453.41L462.562 260.182H466.706L457.906 270.004L466.738 282H462.775L455.722 272.252L453.144 275.214V282H449.852ZM481.615 265.913C481.502 264.905 481.033 264.124 480.209 263.57C479.385 263.009 478.348 262.728 477.098 262.728C476.203 262.728 475.429 262.87 474.776 263.154C474.122 263.431 473.615 263.815 473.252 264.305C472.897 264.788 472.72 265.338 472.72 265.956C472.72 266.474 472.84 266.922 473.082 267.298C473.33 267.675 473.654 267.991 474.051 268.246C474.456 268.495 474.889 268.705 475.351 268.875C475.813 269.038 476.257 269.173 476.683 269.28L478.813 269.834C479.509 270.004 480.223 270.235 480.955 270.526C481.686 270.817 482.365 271.201 482.99 271.677C483.615 272.153 484.119 272.742 484.502 273.445C484.893 274.148 485.088 274.99 485.088 275.97C485.088 277.206 484.769 278.303 484.129 279.262C483.497 280.221 482.578 280.977 481.37 281.531C480.17 282.085 478.718 282.362 477.013 282.362C475.379 282.362 473.966 282.103 472.773 281.585C471.58 281.066 470.646 280.331 469.971 279.379C469.296 278.42 468.923 277.284 468.852 275.97H472.155C472.219 276.759 472.475 277.415 472.922 277.941C473.377 278.46 473.955 278.847 474.659 279.102C475.369 279.351 476.146 279.475 476.992 279.475C477.922 279.475 478.749 279.33 479.474 279.038C480.205 278.74 480.781 278.328 481.2 277.803C481.619 277.27 481.828 276.648 481.828 275.938C481.828 275.292 481.644 274.763 481.274 274.351C480.912 273.939 480.419 273.598 479.794 273.328C479.176 273.058 478.476 272.82 477.695 272.614L475.117 271.911C473.369 271.435 471.985 270.736 470.962 269.812C469.946 268.889 469.438 267.668 469.438 266.148C469.438 264.891 469.779 263.793 470.461 262.856C471.143 261.918 472.066 261.19 473.231 260.672C474.396 260.146 475.71 259.884 477.173 259.884C478.65 259.884 479.953 260.143 481.083 260.661C482.219 261.18 483.114 261.893 483.767 262.803C484.421 263.705 484.762 264.741 484.79 265.913H481.615ZM490.689 282H487.195L495.047 260.182H498.85L506.701 282H503.207L497.039 264.145H496.868L490.689 282ZM491.275 273.456H502.61V276.226H491.275V273.456ZM527.462 260.182V282H524.437L513.346 265.999H513.144V282H509.852V260.182H512.899L524 276.205H524.202V260.182H527.462ZM534.107 282H530.613L538.464 260.182H542.268L550.119 282H546.625L540.457 264.145H540.286L534.107 282ZM534.693 273.456H546.028V276.226H534.693V273.456ZM563.053 282H559.558L567.41 260.182H571.213L579.065 282H575.57L569.402 264.145H569.232L563.053 282ZM563.638 273.456H574.974V276.226H563.638V273.456Z" fill="white"/>
<defs>
<linearGradient id="paint0_linear_67_55" x1="319" y1="273.5" x2="664.5" y2="274" gradientUnits="userSpaceOnUse">
<stop stop-color="#09D664"/>
<stop offset="1" stop-color="#4BBA51"/>
</linearGradient>
</defs>
</svg>
